<svg width="24" height="24" viewBox="0 0 24 24" fill="none" xmlns="http://www.w3.org/2000/svg">
<path d="M2 20.4C2 21.3 2.7 22 3.5 22H20.5C21.3 22 22 21.3 22 20.4V10H2V20.4Z" fill="#037A5B"/>
<path d="M22 5.6C22 4.7 21.3 4 20.5 4H18V6.5C18 7.3 17.3 8 16.5 8C15.7 8 15 7.3 15 6.5V4H9V6.5C9 7.3 8.3 8 7.5 8C6.7 8 6 7.3 6 6.5V4H3.5C2.7 4 2 4.7 2 5.6V9H22V5.6Z" fill="#037A5B"/>
<path fill-rule="evenodd" clip-rule="evenodd" d="M16.5 2C16.7761 2 17 2.22386 17 2.5V6.5C17 6.77614 16.7761 7 16.5 7C16.2239 7 16 6.77614 16 6.5V2.5C16 2.22386 16.2239 2 16.5 2Z" fill="white"/>
<path fill-rule="evenodd" clip-rule="evenodd" d="M7.5 2C7.77614 2 8 2.22386 8 2.5V6.5C8 6.77614 7.77614 7 7.5 7C7.22386 7 7 6.77614 7 6.5V2.5C7 2.22386 7.22386 2 7.5 2Z" fill="white"/>
</svg>
