<svg width="24" height="24" viewBox="0 0 24 24" fill="none" xmlns="http://www.w3.org/2000/svg">
<path d="M5 22C4.45 22 3.979 21.804 3.587 21.412C3.195 21.02 2.99934 20.5493 3 20V8.7C2.71667 8.51667 2.479 8.28334 2.287 8C2.095 7.71667 1.99934 7.38334 2 7V4C2 3.45 2.196 2.979 2.588 2.587C2.98 2.195 3.45067 1.99934 4 2H20C20.55 2 21.021 2.196 21.413 2.588C21.805 2.98 22.0007 3.45067 22 4V7C22 7.38334 21.904 7.71667 21.712 8C21.52 8.28334 21.2827 8.51667 21 8.7V20C21 20.55 20.804 21.021 20.412 21.413C20.02 21.805 19.5493 22.0007 19 22H5ZM20 7V4H4V7H20ZM10 14H14C14.2833 14 14.521 13.904 14.713 13.712C14.905 13.52 15.0007 13.2827 15 13C15 12.7167 14.904 12.479 14.712 12.287C14.52 12.095 14.2827 11.9993 14 12H10C9.71667 12 9.479 12.096 9.287 12.288C9.095 12.48 8.99934 12.7173 9 13C9 13.2833 9.096 13.521 9.288 13.713C9.48 13.905 9.71734 14.0007 10 14Z" fill="#037A5B"/>
</svg>
