<svg width="130" height="26" viewBox="0 0 130 26" fill="none" xmlns="http://www.w3.org/2000/svg">
<path d="M19.7235 6.43109C15.978 2.80426 10.3869 2.80426 6.64142 6.43109C2.89597 10.0579 2.89597 15.9363 6.64142 19.5631C10.3869 23.1899 15.978 23.1899 19.7235 19.5631C20.4726 18.8377 21.6891 18.8377 22.4382 19.5631C23.1873 20.2885 23.1873 21.4665 22.4382 22.1918C17.1946 27.2694 9.17633 27.2694 3.93271 22.1918C-1.3109 17.1143 -1.3109 8.88573 3.93271 3.80817C9.17633 -1.26939 17.1946 -1.26939 22.4382 3.80817C23.1873 4.53353 23.1873 5.71153 22.4382 6.43689C21.6891 7.16226 20.4726 7.16226 19.7235 6.43689V6.43109Z" fill="#037A5B"/>
<path fill-rule="evenodd" clip-rule="evenodd" d="M20.5182 10.8866C19.8215 11.7832 19.2365 12.7564 18.7755 13.7858L16.296 18.9643C15.6687 20.2588 14.8498 21.1219 13.4943 21.0989C12.1388 21.0759 11.5544 20.4473 11.0434 19.6373L10.8387 19.2565C10.9511 19.3697 11.111 19.5466 11.2614 19.6053C11.4118 19.6641 11.5733 19.6915 11.7353 19.6856C12.5654 19.6997 12.8581 19.0155 13.2082 18.2906L16.0806 12.2547C16.5684 11.2189 17.3919 10.254 18.7636 10.2773C19.4014 10.2781 20.02 10.4883 20.5185 10.8736L20.5182 10.8866Z" fill="#037A5B"/>
<path fill-rule="evenodd" clip-rule="evenodd" d="M6.68088 10.5506C7.34468 11.4703 7.89402 12.4627 8.31749 13.5071L10.6078 18.7667C11.1878 20.0817 11.975 20.9721 13.3305 20.9951C14.686 21.0182 15.2927 20.4098 15.8327 19.6176L16.0511 19.244C15.9347 19.3533 15.7685 19.5247 15.6161 19.5783C15.4636 19.6319 15.3012 19.6538 15.1395 19.6424C14.3095 19.6283 14.0417 18.9346 13.7181 18.1982L11.0661 12.0686C10.6161 11.0168 9.82812 10.0245 8.45647 10.0012C7.81908 9.9804 4.27351 9.83291 3.7614 10.201L6.68088 10.5506Z" fill="#037A5B" fill-opacity="0.5"/>
<path d="M47.7443 10.5469H44.6761C44.6856 10.1397 44.6335 9.77983 44.5199 9.46733C44.4063 9.15009 44.2358 8.88021 44.0085 8.65767C43.786 8.43513 43.5137 8.26705 43.1918 8.15341C42.8698 8.03504 42.5076 7.97585 42.1051 7.97585C41.3286 7.97585 40.616 8.16998 39.9673 8.55824C39.3187 8.9465 38.7718 9.50994 38.3267 10.2486C37.8816 10.9825 37.5739 11.8703 37.4034 12.9119C37.2377 13.9157 37.2472 14.7562 37.4318 15.4332C37.6165 16.1103 37.9432 16.6217 38.4119 16.9673C38.8854 17.3082 39.4749 17.4787 40.1804 17.4787C40.616 17.4787 41.0303 17.4242 41.4233 17.3153C41.8163 17.2017 42.1738 17.0407 42.4957 16.8324C42.8224 16.6193 43.1065 16.3613 43.348 16.0582C43.5942 15.7552 43.786 15.4119 43.9233 15.0284H47.0128C46.8187 15.696 46.5156 16.34 46.1037 16.9602C45.6965 17.5805 45.1922 18.1345 44.5909 18.6222C43.9896 19.1051 43.3054 19.4886 42.5384 19.7727C41.7713 20.0568 40.9309 20.1989 40.017 20.1989C38.696 20.1989 37.562 19.8958 36.6151 19.2898C35.6728 18.6837 34.9934 17.8101 34.5767 16.669C34.16 15.5279 34.0819 14.1525 34.3423 12.5426C34.6027 10.9848 35.1117 9.66383 35.8693 8.57955C36.6316 7.49053 37.5573 6.6643 38.6463 6.10085C39.7401 5.5374 40.9096 5.25568 42.1548 5.25568C43.0213 5.25568 43.8049 5.37405 44.5057 5.6108C45.2064 5.84754 45.803 6.19318 46.2955 6.64773C46.7926 7.09754 47.1667 7.64915 47.4176 8.30256C47.6686 8.95597 47.7775 9.70407 47.7443 10.5469ZM52.4283 13.6932L51.3771 20H48.3587L50.7734 5.45455H53.7067L52.7976 11.0156H52.9183C53.2687 10.3717 53.7493 9.86742 54.3601 9.50284C54.9709 9.13352 55.6929 8.94886 56.5263 8.94886C57.2839 8.94886 57.916 9.11458 58.4226 9.44602C58.9339 9.77273 59.2962 10.2438 59.5092 10.8594C59.7223 11.4702 59.7578 12.2017 59.6158 13.054L58.451 20H55.4325L56.4979 13.5938C56.6068 12.9214 56.5192 12.3982 56.2351 12.0241C55.9557 11.6501 55.5107 11.4631 54.8999 11.4631C54.4879 11.4631 54.1091 11.5507 53.7635 11.7259C53.4179 11.901 53.1267 12.1567 52.8899 12.4929C52.6579 12.8243 52.504 13.2244 52.4283 13.6932ZM65.761 20.2131C64.6483 20.2131 63.7274 19.9763 62.9982 19.5028C62.2691 19.0246 61.7553 18.3617 61.457 17.5142C61.1635 16.6619 61.109 15.67 61.2937 14.5384C61.4736 13.4209 61.8477 12.4432 62.4158 11.6051C62.984 10.767 63.7061 10.116 64.582 9.65199C65.458 9.18324 66.4452 8.94886 67.5437 8.94886C68.6516 8.94886 69.5702 9.18797 70.2994 9.66619C71.0285 10.1397 71.5423 10.8026 71.8406 11.6548C72.1388 12.5071 72.1957 13.4991 72.011 14.6307C71.8263 15.7434 71.4476 16.7188 70.8746 17.5568C70.3017 18.3949 69.5797 19.0483 68.7085 19.517C67.8372 19.9811 66.8548 20.2131 65.761 20.2131ZM66.0593 17.8693C66.5707 17.8693 67.0228 17.7249 67.4158 17.4361C67.8136 17.1425 68.1426 16.7448 68.4031 16.2429C68.6682 15.7363 68.8529 15.1634 68.957 14.5241C69.0612 13.8944 69.0683 13.3357 68.9783 12.848C68.8884 12.3556 68.699 11.9673 68.4102 11.6832C68.1261 11.3991 67.7354 11.2571 67.2383 11.2571C66.7269 11.2571 66.2724 11.4039 65.8746 11.6974C65.4769 11.9863 65.1478 12.384 64.8874 12.8906C64.627 13.3973 64.4447 13.9725 64.3406 14.6165C64.2411 15.2415 64.234 15.8002 64.3192 16.2926C64.4045 16.7803 64.5915 17.1662 64.8803 17.4503C65.1692 17.7296 65.5621 17.8693 66.0593 17.8693ZM74.962 20L73.8114 9.09091H76.8725L77.3413 16.4205H77.4407L80.4237 9.09091H83.4279L83.9961 16.3778H84.0884L86.9719 9.09091H90.0259L85.2461 20H82.043L81.3043 13.1392H81.1694L78.158 20H74.962ZM101.81 9.09091L96.1783 20H92.7692L90.7734 9.09091H93.8558L94.8217 16.8963H94.9354L98.4936 9.09091H101.81ZM101.54 20L103.359 9.09091H106.384L104.566 20H101.54ZM105.184 7.67045C104.734 7.67045 104.362 7.52131 104.069 7.22301C103.78 6.91998 103.662 6.56013 103.714 6.14347C103.766 5.71733 103.969 5.35748 104.325 5.06392C104.68 4.76562 105.082 4.61648 105.532 4.61648C105.982 4.61648 106.349 4.76562 106.633 5.06392C106.917 5.35748 107.035 5.71733 106.988 6.14347C106.941 6.56013 106.739 6.91998 106.384 7.22301C106.034 7.52131 105.634 7.67045 105.184 7.67045ZM112.43 5.45455L110.015 20H106.99L109.404 5.45455H112.43ZM117.879 5.45455L115.464 20H112.439L114.854 5.45455H117.879ZM122.831 20.2131C121.714 20.2131 120.788 19.9858 120.054 19.5312C119.32 19.072 118.804 18.4233 118.506 17.5852C118.212 16.7424 118.163 15.7457 118.357 14.5952C118.546 13.473 118.927 12.4882 119.5 11.6406C120.078 10.7931 120.802 10.1326 121.674 9.65909C122.545 9.18561 123.516 8.94886 124.586 8.94886C125.305 8.94886 125.956 9.06487 126.539 9.29688C127.126 9.52415 127.614 9.86979 128.002 10.3338C128.39 10.7931 128.655 11.3684 128.797 12.0597C128.944 12.7509 128.942 13.5606 128.79 14.4886L128.655 15.3196H119.451L119.742 13.4446H126.105C126.176 13.009 126.148 12.6231 126.02 12.2869C125.892 11.9508 125.679 11.688 125.381 11.4986C125.083 11.3045 124.716 11.2074 124.28 11.2074C123.835 11.2074 123.418 11.3163 123.03 11.5341C122.642 11.7519 122.315 12.0384 122.05 12.3935C121.79 12.7438 121.622 13.125 121.546 13.5369L121.212 15.3977C121.117 15.9706 121.136 16.4465 121.269 16.8253C121.406 17.2041 121.643 17.4882 121.979 17.6776C122.315 17.8622 122.741 17.9545 123.257 17.9545C123.594 17.9545 123.908 17.9072 124.202 17.8125C124.5 17.7178 124.766 17.5781 124.998 17.3935C125.23 17.2041 125.419 16.9697 125.566 16.6903L128.328 16.875C128.073 17.5473 127.685 18.1345 127.164 18.6364C126.643 19.1335 126.016 19.5218 125.282 19.8011C124.552 20.0758 123.736 20.2131 122.831 20.2131Z" fill="#037A5B"/>
</svg>
