<svg width="38" height="26" viewBox="0 0 38 42" fill="none" xmlns="http://www.w3.org/2000/svg">
<path d="M31.861 10.3887C25.8107 4.52996 16.7788 4.52996 10.7284 10.3887C4.67811 16.2474 4.67811 25.7432 10.7284 31.6019C16.7788 37.4607 25.8107 37.4607 31.861 31.6019C33.0711 30.4302 35.0362 30.4302 36.2463 31.6019C37.4564 32.7737 37.4564 34.6766 36.2463 35.8483C27.7758 44.0506 14.8233 44.0506 6.35284 35.8483C-2.11761 27.6461 -2.11761 14.3539 6.35284 6.15166C14.8233 -2.05055 27.7758 -2.05055 36.2463 6.15166C37.4564 7.3234 37.4564 9.22631 36.2463 10.3981C35.0362 11.5698 33.0711 11.5698 31.861 10.3981V10.3887Z" fill="#037A5B"/>
<path fill-rule="evenodd" clip-rule="evenodd" d="M33.1443 17.5861C32.0188 19.0345 31.0739 20.6065 30.3291 22.2694L26.3238 30.6347C25.3105 32.7258 23.9876 34.1201 21.7979 34.0829C19.6082 34.0457 18.6643 33.0303 17.8388 31.7218L17.5081 31.1067C17.6897 31.2895 17.948 31.5753 18.1909 31.6702C18.4339 31.7652 18.6948 31.8093 18.9566 31.7998C20.2974 31.8226 20.7702 30.7174 21.3358 29.5464L25.9758 19.7962C26.7638 18.1229 28.0941 16.5642 30.3099 16.6019C31.3401 16.6032 32.3394 16.9427 33.1447 17.565L33.1443 17.5861Z" fill="#037A5B"/>
<path fill-rule="evenodd" clip-rule="evenodd" d="M10.7916 17.0433C11.8638 18.529 12.7512 20.1321 13.4353 21.8193L17.1351 30.3155C18.072 32.4397 19.3436 33.8781 21.5332 33.9153C23.7228 33.9525 24.703 32.9698 25.5753 31.6901L25.9281 31.0866C25.74 31.2631 25.4715 31.5399 25.2253 31.6266C24.9791 31.7132 24.7167 31.7485 24.4555 31.7301C23.1147 31.7073 22.6821 30.5868 22.1594 29.3972L17.8754 19.4954C17.1485 17.7964 15.8756 16.1936 13.6598 16.1559C12.6302 16.1223 6.90272 15.884 6.07547 16.4786L10.7916 17.0433Z" fill="#037A5B" fill-opacity="0.5"/>
</svg>
