<svg width="23" height="24" viewBox="0 0 23 27" fill="none" xmlns="http://www.w3.org/2000/svg">
<path d="M19.75 8.5C19.75 6.51088 18.9598 4.60322 17.5533 3.1967C16.1468 1.79018 14.2391 1 12.25 1C10.2609 1 8.35322 1.79018 6.9467 3.1967C5.54018 4.60322 4.75 6.51088 4.75 8.5C4.75 17.25 1 19.75 1 19.75H23.5C23.5 19.75 19.75 17.25 19.75 8.5Z" stroke="#1B1C1E" stroke-opacity="0.5" stroke-width="2" stroke-linecap="round" stroke-linejoin="round"/>
<path d="M14.4129 24.75C14.1931 25.1288 13.8777 25.4433 13.4982 25.6619C13.1187 25.8805 12.6884 25.9956 12.2504 25.9956C11.8124 25.9956 11.3821 25.8805 11.0026 25.6619C10.6231 25.4433 10.3077 25.1288 10.0879 24.75" stroke="#1B1C1E" stroke-opacity="0.5" stroke-width="2" stroke-linecap="round" stroke-linejoin="round"/>
</svg>
