<svg width="22" height="26" viewBox="0 0 22 26" fill="none" xmlns="http://www.w3.org/2000/svg">
<path d="M19.6667 3.40002H2.33333C1.59695 3.40002 1 3.93728 1 4.60002V23.8C1 24.4628 1.59695 25 2.33333 25H19.6667C20.403 25 21 24.4628 21 23.8V4.60002C21 3.93728 20.403 3.40002 19.6667 3.40002Z" fill="white" stroke="#1B1C1E" stroke-opacity="0.5" stroke-width="2" stroke-linejoin="round"/>
<path d="M6.99935 1V4.6V1ZM14.9993 1V4.6V1ZM5.66602 10H16.3327H5.66602ZM5.66602 14.8H13.666H5.66602ZM5.66602 19.6H10.9993H5.66602Z" fill="white"/>
<path d="M6.99935 1V4.6M14.9993 1V4.6M5.66602 10H16.3327M5.66602 14.8H13.666M5.66602 19.6H10.9993" stroke="#1B1C1E" stroke-opacity="0.5" stroke-width="2" stroke-linecap="round" stroke-linejoin="round"/>
</svg>
