<svg width="20" height="21" viewBox="0 0 20 21" fill="none" xmlns="http://www.w3.org/2000/svg">
<path d="M19.1668 7.16665V15.5C19.1668 16.4166 18.4168 17.1666 17.5002 17.1666H4.16683C3.7085 17.1666 3.3335 16.7916 3.3335 16.3333C3.3335 15.875 3.7085 15.5 4.16683 15.5H17.5002V7.16665C17.5002 6.70831 17.8752 6.33331 18.3335 6.33331C18.7918 6.33331 19.1668 6.70831 19.1668 7.16665ZM3.3335 13.8333C1.95016 13.8333 0.833496 12.7166 0.833496 11.3333V6.33331C0.833496 4.94998 1.95016 3.83331 3.3335 3.83331H13.3335C14.7168 3.83331 15.8335 4.94998 15.8335 6.33331V12.1666C15.8335 13.0833 15.0835 13.8333 14.1668 13.8333H3.3335ZM5.8335 8.83331C5.8335 10.2166 6.95016 11.3333 8.3335 11.3333C9.71683 11.3333 10.8335 10.2166 10.8335 8.83331C10.8335 7.44998 9.71683 6.33331 8.3335 6.33331C6.95016 6.33331 5.8335 7.44998 5.8335 8.83331Z" fill="#1B1C1E" fill-opacity="0.5"/>
</svg>
