<svg width="20" height="21" viewBox="0 0 20 21" fill="none" xmlns="http://www.w3.org/2000/svg">
<path d="M17.8082 7.40833L10.7165 2.38333C10.2832 2.09166 9.70817 2.09166 9.28317 2.38333L2.18317 7.41667C1.85817 7.65 1.6665 8.03333 1.6665 8.43333V17.5833C1.6665 18.275 2.22484 18.8333 2.9165 18.8333H7.08317C7.77484 18.8333 8.33317 18.275 8.33317 17.5833V13.4083C8.33317 13.175 8.5165 12.9917 8.74984 12.9917L11.2498 13C11.4915 13 11.6665 13.1833 11.6665 13.4167V17.5833C11.6665 18.275 12.2248 18.8333 12.9165 18.8333H17.0832C17.7748 18.8333 18.3332 18.275 18.3332 17.5833V8.43333C18.3332 8.03333 18.1415 7.65 17.8082 7.40833Z" fill="#037A5B"/>
</svg>
